# xmcd CD database file
#
# Track frame offsets:
#	150
#	25420
#	43750
#	58843
#	80610
#	94598
#	116658
#	132988
#	147603
#	163325
#
# Disc length: 2412 seconds
#
# Revision: 0
# Processed by: cddbd v1.5.2PL0 Copyright (c) Steve Scherf et al.
# Submitted via: CDex 1.51
#
DISCID=94096a0a
DTITLE=scene, the - rij rij rij
DYEAR=1900
DGENRE=Rhythmic Soul
TTITLE0=kom omhoog
TTITLE1=hartslag
TTITLE2=borderline
TTITLE3=het werk van god
TTITLE4=s.e.x.
TTITLE5=open vizier
TTITLE6=uit verwarring
TTITLE7=ritme
TTITLE8=rij rij rij
TTITLE9=where love has gone (bonus track)
EXTD=
EXTT0=
EXTT1=
EXTT2=
EXTT3=
EXTT4=
EXTT5=
EXTT6=
EXTT7=
EXTT8=
EXTT9=
PLAYORDER=
